<?xml version="1.0" encoding="utf-8"?>
<!-- Generator: Adobe Illustrator 18.0.0, SVG Export Plug-In . SVG Version: 6.00 Build 0)  -->
<!DOCTYPE svg PUBLIC "-//W3C//DTD SVG 1.1//EN" "http://www.w3.org/Graphics/SVG/1.1/DTD/svg11.dtd">
<svg version="1.1" id="Your_Icon" xmlns="http://www.w3.org/2000/svg" xmlns:xlink="http://www.w3.org/1999/xlink" x="0px" y="0px"
	 viewBox="22 14 46.5 57.8" enable-background="new 22 14 46.5 57.8" xml:space="preserve">
<g>
	<g>
		<path fill="#4E4E4E" d="M37,25.2v-3.9c-2.8,0.9-5.4,2.2-7.7,3.7L26,21.6l-3.4,12.5l12.5-3.2L32,27.7C33.5,26.7,35.2,25.9,37,25.2z
			"/>
		<path fill="#4E4E4E" d="M67.5,26l-9.3-11.5l-2,5.2c-3.1-0.5-6.3-0.7-9.5-0.4v3.7c2.8-0.2,5.5-0.2,8.2,0.2l-1.9,5L67.5,26z"/>
	</g>
	<g>
		<path fill="#4E4E4E" d="M31.2,52.7L31.2,52.7c0,10.1,8.2,18.4,18.4,18.4c10.1,0,18.4-8.2,18.4-16.5l0-14.9c0-2.1-1.4-3.4-3.2-3.4
			c-1.8,0-3.2,1.4-3.2,3.2V44h-1.3l0-7.8c0-1.8-1.4-3.2-3.2-3.2c-1.7,0-3.2,1.4-3.2,3.2l0,6.7h-1.3l0-8.4c0-1.8-1.4-3.2-3.2-3.2
			c-1.7,0-3.2,1.4-3.2,3.2v7.6l-1.3,0l0-22.3c0-1.8-1.4-3.2-3.2-3.2c-1.7,0-3.2,1.4-3.2,3.2l0,31.1l-1.3,0V39.6
			c0-1.8-1.4-3.2-3.2-3.2c-1.8,0-3.2,1.5-3.2,3.2L31.2,52.7z"/>
	</g>
</g>
<text transform="matrix(1 0 0 1 14.2599 84.4443)" font-family="'HelveticaNeue-Bold'" font-size="3.7037">Created by chris dawson</text>
<text transform="matrix(1 0 0 1 14.2599 88.1484)" font-family="'HelveticaNeue-Bold'" font-size="3.7037">from the Noun Project</text>
</svg>
